<mxfile host="app.diagrams.net" modified="2023-12-06T14:49:45.054Z" agent="Mozilla/5.0 (Windows NT 10.0; Win64; x64; rv:120.0) Gecko/20100101 Firefox/120.0" etag="VyP1fumreyI5mJf2ja15" version="22.1.6" type="github">
  <diagram name="Page-1" id="97916047-d0de-89f5-080d-49f4d83e522f">
    <mxGraphModel dx="2206" dy="1222" grid="1" gridSize="10" guides="1" tooltips="1" connect="1" arrows="1" fold="1" page="1" pageScale="1.5" pageWidth="1169" pageHeight="827" background="none" math="0" shadow="0">
      <root>
        <mxCell id="0" />
        <mxCell id="1" parent="0" />
        <mxCell id="2" value="python" style="rounded=1;fillColor=#f5f5f5;strokeColor=#666666;shadow=1;fontStyle=1;fontColor=#333333;fontSize=14;" parent="1" vertex="1">
          <mxGeometry x="380" y="500" width="200" height="60" as="geometry" />
        </mxCell>
        <mxCell id="3" value="Terminal" style="rounded=1;fillColor=#10739E;strokeColor=none;shadow=1;gradientColor=none;fontStyle=1;fontColor=#FFFFFF;fontSize=14;" parent="1" vertex="1">
          <mxGeometry x="840" y="500" width="200" height="60" as="geometry" />
        </mxCell>
        <mxCell id="4" value="Linux / Mac" style="rounded=1;fillColor=#10739E;strokeColor=none;shadow=1;gradientColor=none;fontStyle=1;fontColor=#FFFFFF;fontSize=14;" parent="1" vertex="1">
          <mxGeometry x="840" y="580" width="200" height="60" as="geometry" />
        </mxCell>
        <mxCell id="5" value="Docker" style="rounded=1;fillColor=#10739E;strokeColor=none;shadow=1;gradientColor=none;fontStyle=1;fontColor=#FFFFFF;fontSize=14;" parent="1" vertex="1">
          <mxGeometry x="840" y="420" width="200" height="60" as="geometry" />
        </mxCell>
        <mxCell id="6" value="Machine Learning" style="rounded=1;fillColor=#10739E;strokeColor=none;shadow=1;gradientColor=none;fontStyle=1;fontColor=#FFFFFF;fontSize=14;" parent="1" vertex="1">
          <mxGeometry x="40" y="480" width="200" height="60" as="geometry" />
        </mxCell>
        <mxCell id="7" value="IP reti e sottoreti" style="rounded=1;fillColor=#10739E;strokeColor=none;shadow=1;gradientColor=none;fontStyle=1;fontColor=#FFFFFF;fontSize=14;" parent="1" vertex="1">
          <mxGeometry x="840" y="90" width="200" height="60" as="geometry" />
        </mxCell>
        <mxCell id="8" value="" style="rounded=1;fillColor=#10739E;strokeColor=none;shadow=1;gradientColor=none;fontStyle=1;fontColor=#FFFFFF;fontSize=14;" parent="1" vertex="1">
          <mxGeometry x="1270" y="700" width="200" height="60" as="geometry" />
        </mxCell>
        <mxCell id="9" value="Kivy" style="rounded=1;fillColor=#10739E;strokeColor=none;shadow=1;gradientColor=none;fontStyle=1;fontColor=#FFFFFF;fontSize=14;" parent="1" vertex="1">
          <mxGeometry x="40" y="690" width="200" height="60" as="geometry" />
        </mxCell>
        <mxCell id="11" value="" style="rounded=1;fillColor=#10739E;strokeColor=none;shadow=1;gradientColor=none;fontStyle=1;fontColor=#FFFFFF;fontSize=14;" parent="1" vertex="1">
          <mxGeometry x="1280" y="930" width="200" height="60" as="geometry" />
        </mxCell>
        <mxCell id="12" value="" style="rounded=1;fillColor=#10739E;strokeColor=none;shadow=1;gradientColor=none;fontStyle=1;fontColor=#FFFFFF;fontSize=14;" parent="1" vertex="1">
          <mxGeometry x="370" y="370" width="200" height="60" as="geometry" />
        </mxCell>
        <mxCell id="13" value="" style="rounded=1;fillColor=#10739E;strokeColor=none;shadow=1;gradientColor=none;fontStyle=1;fontColor=#FFFFFF;fontSize=14;" parent="1" vertex="1">
          <mxGeometry x="1180" y="240" width="200" height="60" as="geometry" />
        </mxCell>
        <mxCell id="14" value="" style="rounded=1;fillColor=#10739E;strokeColor=none;shadow=1;gradientColor=none;fontStyle=1;fontColor=#FFFFFF;fontSize=14;" parent="1" vertex="1">
          <mxGeometry x="360" y="640" width="200" height="60" as="geometry" />
        </mxCell>
        <mxCell id="15" value="" style="rounded=1;fillColor=#10739E;strokeColor=none;shadow=1;gradientColor=none;fontStyle=1;fontColor=#FFFFFF;fontSize=14;" parent="1" vertex="1">
          <mxGeometry x="360" y="790" width="200" height="60" as="geometry" />
        </mxCell>
        <mxCell id="16" value="API " style="rounded=1;fillColor=#10739E;strokeColor=none;shadow=1;gradientColor=none;fontStyle=1;fontColor=#FFFFFF;fontSize=14;" parent="1" vertex="1">
          <mxGeometry x="840" y="260" width="200" height="60" as="geometry" />
        </mxCell>
        <mxCell id="18" value="VSC/Pycharm" style="rounded=1;fillColor=#10739E;strokeColor=none;shadow=1;gradientColor=none;fontStyle=1;fontColor=#FFFFFF;fontSize=14;" parent="1" vertex="1">
          <mxGeometry x="840" y="670" width="200" height="60" as="geometry" />
        </mxCell>
        <mxCell id="19" value="" style="rounded=1;fillColor=#10739E;strokeColor=none;shadow=1;gradientColor=none;fontStyle=1;fontColor=#FFFFFF;fontSize=14;" parent="1" vertex="1">
          <mxGeometry x="350" y="260" width="200" height="60" as="geometry" />
        </mxCell>
        <mxCell id="20" value="" style="rounded=1;fillColor=#10739E;strokeColor=none;shadow=1;gradientColor=none;fontStyle=1;fontColor=#FFFFFF;fontSize=14;" parent="1" vertex="1">
          <mxGeometry x="1210" y="370" width="200" height="60" as="geometry" />
        </mxCell>
        <mxCell id="22" value="SQL" style="rounded=1;fillColor=#10739E;strokeColor=none;shadow=1;gradientColor=none;fontStyle=1;fontColor=#FFFFFF;fontSize=14;" parent="1" vertex="1">
          <mxGeometry x="840" y="170" width="200" height="60" as="geometry" />
        </mxCell>
        <mxCell id="23" value="Node.js" style="rounded=1;fillColor=#10739E;strokeColor=none;shadow=1;gradientColor=none;fontStyle=1;fontColor=#FFFFFF;fontSize=14;" parent="1" vertex="1">
          <mxGeometry x="1520" y="10" width="200" height="60" as="geometry" />
        </mxCell>
        <mxCell id="24" value="Git" style="rounded=1;fillColor=#10739E;strokeColor=none;shadow=1;gradientColor=none;fontStyle=1;fontColor=#FFFFFF;fontSize=14;" parent="1" vertex="1">
          <mxGeometry x="840" y="340" width="200" height="60" as="geometry" />
        </mxCell>
        <mxCell id="25" value="JavaScript" style="rounded=1;fillColor=#10739E;strokeColor=none;shadow=1;gradientColor=none;fontStyle=1;fontColor=#FFFFFF;fontSize=14;" parent="1" vertex="1">
          <mxGeometry x="1520" y="110" width="200" height="60" as="geometry" />
        </mxCell>
        <mxCell id="26" value="HTML / CSS&#xa;TailwindCSS&#xa;" style="rounded=1;fillColor=#10739E;strokeColor=none;shadow=1;gradientColor=none;fontStyle=1;fontColor=#FFFFFF;fontSize=14;" parent="1" vertex="1">
          <mxGeometry x="1520" y="200" width="200" height="70" as="geometry" />
        </mxCell>
        <mxCell id="27" value="TailwindCSS" style="rounded=1;fillColor=#10739E;strokeColor=none;shadow=1;gradientColor=none;fontStyle=1;fontColor=#FFFFFF;fontSize=14;" parent="1" vertex="1">
          <mxGeometry x="1520" y="300" width="200" height="60" as="geometry" />
        </mxCell>
        <mxCell id="10" value="Django" style="rounded=1;fillColor=#10739E;strokeColor=none;shadow=1;gradientColor=none;fontStyle=1;fontColor=#FFFFFF;fontSize=14;" parent="1" vertex="1">
          <mxGeometry x="40" y="590" width="200" height="60" as="geometry" />
        </mxCell>
        <mxCell id="Gubflhw2xcPmfwRFbT08-68" value="WEB DEV" style="rounded=1;fillColor=#f5f5f5;strokeColor=#666666;shadow=1;fontStyle=1;fontColor=#333333;fontSize=14;" vertex="1" parent="1">
          <mxGeometry x="1260" y="500" width="200" height="60" as="geometry" />
        </mxCell>
        <mxCell id="Gubflhw2xcPmfwRFbT08-81" value="" style="endArrow=classic;html=1;rounded=0;strokeWidth=5;exitX=0;exitY=0.5;exitDx=0;exitDy=0;entryX=1;entryY=0.5;entryDx=0;entryDy=0;" edge="1" parent="1" source="Gubflhw2xcPmfwRFbT08-68" target="3">
          <mxGeometry width="50" height="50" relative="1" as="geometry">
            <mxPoint x="930" y="630" as="sourcePoint" />
            <mxPoint x="980" y="580" as="targetPoint" />
          </mxGeometry>
        </mxCell>
        <mxCell id="Gubflhw2xcPmfwRFbT08-82" value="" style="endArrow=classic;html=1;rounded=0;strokeWidth=5;exitX=1;exitY=0.5;exitDx=0;exitDy=0;entryX=0;entryY=0.5;entryDx=0;entryDy=0;" edge="1" parent="1" source="2" target="3">
          <mxGeometry width="50" height="50" relative="1" as="geometry">
            <mxPoint x="1320" y="510" as="sourcePoint" />
            <mxPoint x="1050" y="540" as="targetPoint" />
          </mxGeometry>
        </mxCell>
        <mxCell id="Gubflhw2xcPmfwRFbT08-83" value="" style="endArrow=classic;html=1;rounded=0;strokeWidth=5;exitX=0;exitY=0.5;exitDx=0;exitDy=0;entryX=1;entryY=0.5;entryDx=0;entryDy=0;" edge="1" parent="1" source="2" target="6">
          <mxGeometry width="50" height="50" relative="1" as="geometry">
            <mxPoint x="590" y="540" as="sourcePoint" />
            <mxPoint x="850" y="540" as="targetPoint" />
            <Array as="points" />
          </mxGeometry>
        </mxCell>
        <mxCell id="Gubflhw2xcPmfwRFbT08-84" value="" style="endArrow=classic;html=1;rounded=0;strokeWidth=5;exitX=0.5;exitY=1;exitDx=0;exitDy=0;entryX=0.5;entryY=0;entryDx=0;entryDy=0;" edge="1" parent="1" source="6" target="10">
          <mxGeometry width="50" height="50" relative="1" as="geometry">
            <mxPoint x="390" y="540" as="sourcePoint" />
            <mxPoint x="250" y="540" as="targetPoint" />
            <Array as="points" />
          </mxGeometry>
        </mxCell>
        <mxCell id="Gubflhw2xcPmfwRFbT08-85" value="" style="endArrow=classic;html=1;rounded=0;strokeWidth=5;exitX=0.5;exitY=1;exitDx=0;exitDy=0;entryX=0.5;entryY=0;entryDx=0;entryDy=0;" edge="1" parent="1" source="10" target="9">
          <mxGeometry width="50" height="50" relative="1" as="geometry">
            <mxPoint x="150" y="550" as="sourcePoint" />
            <mxPoint x="150" y="600" as="targetPoint" />
            <Array as="points" />
          </mxGeometry>
        </mxCell>
        <mxCell id="Gubflhw2xcPmfwRFbT08-86" value="" style="endArrow=classic;html=1;rounded=0;strokeWidth=5;exitX=0.5;exitY=1;exitDx=0;exitDy=0;" edge="1" parent="1" source="23" target="25">
          <mxGeometry width="50" height="50" relative="1" as="geometry">
            <mxPoint x="150" y="550" as="sourcePoint" />
            <mxPoint x="150" y="600" as="targetPoint" />
            <Array as="points" />
          </mxGeometry>
        </mxCell>
        <mxCell id="Gubflhw2xcPmfwRFbT08-87" value="" style="endArrow=classic;html=1;rounded=0;strokeWidth=5;exitX=0.555;exitY=1.005;exitDx=0;exitDy=0;exitPerimeter=0;entryX=0.5;entryY=0;entryDx=0;entryDy=0;" edge="1" parent="1" source="25" target="26">
          <mxGeometry width="50" height="50" relative="1" as="geometry">
            <mxPoint x="1630" y="80" as="sourcePoint" />
            <mxPoint x="1630" y="120" as="targetPoint" />
            <Array as="points" />
          </mxGeometry>
        </mxCell>
        <mxCell id="Gubflhw2xcPmfwRFbT08-88" value="" style="endArrow=classic;html=1;rounded=0;strokeWidth=5;exitX=0.578;exitY=1.092;exitDx=0;exitDy=0;exitPerimeter=0;" edge="1" parent="1" source="26" target="27">
          <mxGeometry width="50" height="50" relative="1" as="geometry">
            <mxPoint x="1641" y="180" as="sourcePoint" />
            <mxPoint x="1630" y="210" as="targetPoint" />
            <Array as="points" />
          </mxGeometry>
        </mxCell>
        <mxCell id="Gubflhw2xcPmfwRFbT08-89" value="" style="endArrow=classic;html=1;rounded=0;strokeWidth=5;exitX=1;exitY=0;exitDx=0;exitDy=0;entryX=0.162;entryY=0.992;entryDx=0;entryDy=0;entryPerimeter=0;" edge="1" parent="1" source="Gubflhw2xcPmfwRFbT08-68" target="27">
          <mxGeometry width="50" height="50" relative="1" as="geometry">
            <mxPoint x="1270" y="540" as="sourcePoint" />
            <mxPoint x="1050" y="540" as="targetPoint" />
          </mxGeometry>
        </mxCell>
      </root>
    </mxGraphModel>
  </diagram>
</mxfile>
